HIERARCHY
ROOT Hips
{
  OFFSET 0.000 69.866 0.000
  CHANNELS 6 Xposition Yposition Zposition Zrotation Xrotation Yrotation
  JOINT LeftUpLeg
  {
    OFFSET 5.960 0.998 1.819
    CHANNELS 6 Xposition Yposition Zposition Zrotation Xrotation Yrotation
    JOINT LeftLeg
    {
      OFFSET 0.000 -36.014 0.000
      CHANNELS 6 Xposition Yposition Zposition Zrotation Xrotation Yrotation
      JOINT LeftFoot
      {
        OFFSET 0.000 -34.850 0.000
        CHANNELS 6 Xposition Yposition Zposition Zrotation Xrotation Yrotation
        End Site
        {
          OFFSET 0.000 0.000 10.021
        }
      }
    }
  }
  JOINT RightUpLeg
  {
    OFFSET -5.960 0.998 1.819
    CHANNELS 6 Xposition Yposition Zposition Zrotation Xrotation Yrotation
    JOINT RightLeg
    {
      OFFSET 0.000 -36.014 0.000
      CHANNELS 6 Xposition Yposition Zposition Zrotation Xrotation Yrotation
      JOINT RightFoot
      {
        OFFSET 0.000 -34.850 0.000
        CHANNELS 6 Xposition Yposition Zposition Zrotation Xrotation Yrotation
        End Site
        {
          OFFSET 0.000 0.000 10.021
        }
      }
    }
  }
  JOINT Spine
  {
    OFFSET 0.000 22.128 0.000
    CHANNELS 6 Xposition Yposition Zposition Zrotation Xrotation Yrotation
    JOINT Spine1
    {
      OFFSET 0.000 17.116 0.000
      CHANNELS 6 Xposition Yposition Zposition Zrotation Xrotation Yrotation
      JOINT LeftShoulder
      {
        OFFSET 1.800 -0.600 0.200
        CHANNELS 6 Xposition Yposition Zposition Zrotation Xrotation Yrotation
        JOINT LeftArm
        {
          OFFSET 13.897 0.000 0.000
          CHANNELS 6 Xposition Yposition Zposition Zrotation Xrotation Yrotation
          JOINT LeftForeArm
          {
            OFFSET 25.163 0.000 0.000
            CHANNELS 6 Xposition Yposition Zposition Zrotation Xrotation Yrotation
            JOINT LeftHand
            {
              OFFSET 22.246 0.000 0.000
              CHANNELS 6 Xposition Yposition Zposition Zrotation Xrotation Yrotation
              JOINT LeftHandThumb1
              {
                OFFSET 4.877 -1.044 3.608
                CHANNELS 6 Xposition Yposition Zposition Zrotation Xrotation Yrotation
                JOINT LeftHandThumb2
                {
                  OFFSET 2.665 -0.000 -0.000
                  CHANNELS 6 Xposition Yposition Zposition Zrotation Xrotation Yrotation
                  JOINT LeftHandThumb3
                  {
                    OFFSET 2.543 -0.000 0.000
                    CHANNELS 6 Xposition Yposition Zposition Zrotation Xrotation Yrotation
                    End Site
                    {
                      OFFSET 2.667 0.000 0.000
                    }
                  }
                }
              }
              JOINT LeftHandIndex1
              {
                OFFSET 9.232 -0.301 2.144
                CHANNELS 6 Xposition Yposition Zposition Zrotation Xrotation Yrotation
                JOINT LeftHandIndex2
                {
                  OFFSET 4.225 -0.000 0.000
                  CHANNELS 6 Xposition Yposition Zposition Zrotation Xrotation Yrotation
                  JOINT LeftHandIndex3
                  {
                    OFFSET 2.654 -0.000 -0.000
                    CHANNELS 6 Xposition Yposition Zposition Zrotation Xrotation Yrotation
                    End Site
                    {
                      OFFSET 1.958 0.000 0.000
                    }
                  }
                }
              }
              JOINT LeftHandMiddle1
              {
                OFFSET 8.920 0.000 0.000
                CHANNELS 6 Xposition Yposition Zposition Zrotation Xrotation Yrotation
                JOINT LeftHandMiddle2
                {
                  OFFSET 4.863 0.000 -0.000
                  CHANNELS 6 Xposition Yposition Zposition Zrotation Xrotation Yrotation
                  JOINT LeftHandMiddle3
                  {
                    OFFSET 2.765 0.000 -0.000
                    CHANNELS 6 Xposition Yposition Zposition Zrotation Xrotation Yrotation
                    End Site
                    {
                      OFFSET 2.006 0.000 0.000
                    }
                  }
                }
              }
              JOINT LeftHandRing1
              {
                OFFSET 8.689 -0.126 -2.087
                CHANNELS 6 Xposition Yposition Zposition Zrotation Xrotation Yrotation
                JOINT LeftHandRing2
                {
                  OFFSET 4.538 0.000 0.000
                  CHANNELS 6 Xposition Yposition Zposition Zrotation Xrotation Yrotation
                  JOINT LeftHandRing3
                  {
                    OFFSET 2.305 0.000 0.000
                    CHANNELS 6 Xposition Yposition Zposition Zrotation Xrotation Yrotation
                    End Site
                    {
                      OFFSET 1.923 0.000 -0.000
                    }
                  }
                }
              }
              JOINT LeftHandPinky1
              {
                OFFSET 8.391 -0.817 -3.758
                CHANNELS 6 Xposition Yposition Zposition Zrotation Xrotation Yrotation
                JOINT LeftHandPinky2
                {
                  OFFSET 3.044 0.000 -0.000
                  CHANNELS 6 Xposition Yposition Zposition Zrotation Xrotation Yrotation
                  JOINT LeftHandPinky3
                  {
                    OFFSET 1.975 -0.000 0.000
                    CHANNELS 6 Xposition Yposition Zposition Zrotation Xrotation Yrotation
                    End Site
                    {
                      OFFSET 1.667 0.000 0.000
                    }
                  }
                }
              }
            }
          }
        }
      }
      JOINT RightShoulder
      {
        OFFSET -1.800 -0.600 0.200
        CHANNELS 6 Xposition Yposition Zposition Zrotation Xrotation Yrotation
        JOINT RightArm
        {
          OFFSET -13.897 0.000 0.000
          CHANNELS 6 Xposition Yposition Zposition Zrotation Xrotation Yrotation
          JOINT RightForeArm
          {
            OFFSET -25.163 0.000 0.000
            CHANNELS 6 Xposition Yposition Zposition Zrotation Xrotation Yrotation
            JOINT RightHand
            {
              OFFSET -22.246 0.000 0.000
              CHANNELS 6 Xposition Yposition Zposition Zrotation Xrotation Yrotation
              JOINT RightHandThumb1
              {
                OFFSET -4.877 -1.044 3.608
                CHANNELS 6 Xposition Yposition Zposition Zrotation Xrotation Yrotation
                JOINT RightHandThumb2
                {
                  OFFSET -2.665 -0.000 0.000
                  CHANNELS 6 Xposition Yposition Zposition Zrotation Xrotation Yrotation
                  JOINT RightHandThumb3
                  {
                    OFFSET -2.543 -0.000 0.000
                    CHANNELS 6 Xposition Yposition Zposition Zrotation Xrotation Yrotation
                    End Site
                    {
                      OFFSET -2.667 0.000 0.000
                    }
                  }
                }
              }
              JOINT RightHandIndex1
              {
                OFFSET -9.232 -0.301 2.144
                CHANNELS 6 Xposition Yposition Zposition Zrotation Xrotation Yrotation
                JOINT RightHandIndex2
                {
                  OFFSET -4.225 0.000 -0.000
                  CHANNELS 6 Xposition Yposition Zposition Zrotation Xrotation Yrotation
                  JOINT RightHandIndex3
                  {
                    OFFSET -2.654 0.000 0.000
                    CHANNELS 6 Xposition Yposition Zposition Zrotation Xrotation Yrotation
                    End Site
                    {
                      OFFSET -1.958 -0.000 0.000
                    }
                  }
                }
              }
              JOINT RightHandMiddle1
              {
                OFFSET -8.920 0.000 0.000
                CHANNELS 6 Xposition Yposition Zposition Zrotation Xrotation Yrotation
                JOINT RightHandMiddle2
                {
                  OFFSET -4.863 0.000 0.000
                  CHANNELS 6 Xposition Yposition Zposition Zrotation Xrotation Yrotation
                  JOINT RightHandMiddle3
                  {
                    OFFSET -2.765 -0.000 0.000
                    CHANNELS 6 Xposition Yposition Zposition Zrotation Xrotation Yrotation
                    End Site
                    {
                      OFFSET -2.006 -0.000 -0.000
                    }
                  }
                }
              }
              JOINT RightHandRing1
              {
                OFFSET -8.689 -0.126 -2.087
                CHANNELS 6 Xposition Yposition Zposition Zrotation Xrotation Yrotation
                JOINT RightHandRing2
                {
                  OFFSET -4.538 0.000 0.000
                  CHANNELS 6 Xposition Yposition Zposition Zrotation Xrotation Yrotation
                  JOINT RightHandRing3
                  {
                    OFFSET -2.305 -0.000 0.000
                    CHANNELS 6 Xposition Yposition Zposition Zrotation Xrotation Yrotation
                    End Site
                    {
                      OFFSET -1.923 0.000 0.000
                    }
                  }
                }
              }
              JOINT RightHandPinky1
              {
                OFFSET -8.391 -0.817 -3.758
                CHANNELS 6 Xposition Yposition Zposition Zrotation Xrotation Yrotation
                JOINT RightHandPinky2
                {
                  OFFSET -3.044 0.000 -0.000
                  CHANNELS 6 Xposition Yposition Zposition Zrotation Xrotation Yrotation
                  JOINT RightHandPinky3
                  {
                    OFFSET -1.975 -0.000 0.000
                    CHANNELS 6 Xposition Yposition Zposition Zrotation Xrotation Yrotation
                    End Site
                    {
                      OFFSET -1.667 -0.000 0.000
                    }
                  }
                }
              }
            }
          }
        }
      }
      JOINT Neck
      {
        OFFSET 0.000 0.800 0.000
        CHANNELS 6 Xposition Yposition Zposition Zrotation Xrotation Yrotation
        JOINT Head
        {
          OFFSET 0.000 6.853 0.000
          CHANNELS 6 Xposition Yposition Zposition Zrotation Xrotation Yrotation
          End Site
          {
            OFFSET 0.000 12.857 0.000
          }
        }
      }
    }
  }
}
MOTION
Frames:	4
Frame Time:	0.033333
-48.28149 48.01894 -226.60474 -14.52518 47.15897 -2.59723 8.94479 4.46366 1.23467 147.62343 -52.91129 94.63741 -0.32342 -36.39069 0.05092 -109.52698 35.33796 75.28565 -0.17961 -36.78139 -0.30112 6.05212 6.91565 -17.28904 -7.82644 1.17536 1.37137 -87.93953 -62.15597 -102.28272 0.16585 -31.74436 0.31414 -165.35814 86.22425 152.62848 -0.03239 -38.10028 -0.24611 11.08129 16.14311 -25.96348 0.60768 30.69830 0.09011 -0.56938 1.29789 2.08033 0.72873 23.45396 0.29026 -0.61616 2.01625 3.37277 1.55074 -0.18388 0.15756 -6.88549 -0.55867 3.63108 11.74593 -0.10187 -0.03217 -22.19599 4.75889 -59.04025 22.44141 -0.00436 -0.03410 3.86408 8.79840 -16.76871 23.05361 0.28596 -0.27677 8.36937 1.25020 -8.56384 4.87701 -1.04400 3.60799 -24.67057 4.20365 -9.07431 2.66500 -0.00001 -0.00001 0.00000 0.00000 9.99472 2.54301 -0.00001 0.00000 0.00001 0.00000 15.00414 9.23200 -0.30100 2.14399 -20.00339 -0.00000 0.00000 4.22502 -0.00001 0.00001 -25.00367 -0.00000 0.00000 2.65400 -0.00001 -0.00001 -29.90891 2.50324 -4.32895 8.92000 0.00000 0.00000 -20.00339 -0.00000 0.00000 4.86299 0.00000 -0.00001 -25.00367 -0.00000 0.00000 2.76499 0.00000 -0.00001 -29.90891 2.50324 -4.32895 8.68900 -0.12600 -2.08700 -20.00339 -0.00000 0.00000 4.53801 0.00000 0.00000 -25.00367 -0.00000 0.00000 2.30500 0.00000 0.00001 -29.90891 2.50324 -4.32895 8.39099 -0.81700 -3.75800 -20.00339 -0.00000 0.00000 3.04400 0.00001 -0.00001 -25.00367 -0.00000 0.00000 1.97499 -0.00001 0.00001 -29.90891 2.50324 -4.32895 -1.02961 -1.71028 -0.02833 57.18000 -2.65764 -2.45729 -17.99549 -0.36972 0.37963 47.12684 -36.79572 26.99317 -23.23777 0.77270 0.40127 21.82806 5.46033 34.67239 -23.72267 0.25172 0.49160 -3.33653 -14.26309 32.88645 -4.87701 -1.04399 3.60800 24.66570 4.20854 9.07947 -2.66501 -0.00001 0.00001 0.00000 0.00000 -10.00000 -2.54301 -0.00002 0.00001 -0.00000 -0.00000 -15.00000 -9.23200 -0.30100 2.14400 20.00000 0.00000 0.00000 -4.22500 0.00001 -0.00001 25.00000 0.00000 0.00000 -2.65398 0.00001 0.00001 29.90550 2.49761 4.33288 -8.92001 0.00000 0.00000 20.00000 0.00000 0.00000 -4.86301 0.00000 0.00000 25.00000 0.00000 0.00000 -2.76499 -0.00001 0.00000 29.90549 2.49770 4.33288 -8.68901 -0.12600 -2.08700 20.00000 0.00000 0.00000 -4.53801 0.00000 0.00000 25.00000 0.00000 0.00000 -2.30501 -0.00002 0.00002 29.90549 2.49770 4.33288 -8.39100 -0.81704 -3.75800 20.00000 0.00000 0.00000 -3.04401 0.00001 -0.00001 25.00000 0.00000 0.00000 -1.97499 -0.00001 0.00000 29.90550 2.49761 4.33288 0.01615 0.80600 0.00918 0.00003 0.00732 0.00623 0.25332 7.23371 0.12598 30.35760 -14.29797 10.87373 
-45.31298 46.29283 -226.57860 -17.78836 50.50407 -0.21989 8.91366 4.68730 1.11099 149.09377 -50.03523 93.85312 -0.14030 -38.24762 -0.29109 -108.28501 32.30249 68.47160 -0.34275 -37.17786 -0.35217 3.85631 3.32699 -26.48566 -7.98591 1.13992 1.20723 -94.88464 -58.09874 -105.21867 0.21239 -31.88046 0.47060 139.41850 80.81575 -149.85794 -0.00687 -38.36572 -0.17391 9.79428 17.05499 -23.95860 0.60142 30.55871 0.15694 -0.39359 1.26484 3.13544 0.76777 23.40602 0.38272 -0.39592 1.79792 4.44704 1.45237 -0.14785 0.17053 -6.45735 -0.24834 0.74923 11.48014 -0.06503 0.00752 -19.35034 2.15316 -58.51755 21.57186 -0.00668 0.03216 5.36713 7.46517 -14.99726 21.97015 0.16082 -0.06684 4.78136 4.21412 -0.92483 4.87701 -1.04400 3.60799 -24.67057 4.20365 -9.07431 2.66500 -0.00001 -0.00001 0.00000 0.00000 9.99472 2.54301 -0.00001 0.00000 0.00001 0.00000 15.00414 9.23200 -0.30100 2.14399 -20.00339 -0.00000 0.00000 4.22502 -0.00001 0.00001 -25.00367 -0.00000 0.00000 2.65400 -0.00001 -0.00001 -29.90891 2.50324 -4.32895 8.92000 0.00000 0.00000 -20.00339 -0.00000 0.00000 4.86299 0.00000 -0.00001 -25.00367 -0.00000 0.00000 2.76499 0.00000 -0.00001 -29.90891 2.50324 -4.32895 8.68900 -0.12600 -2.08700 -20.00339 -0.00000 0.00000 4.53801 0.00000 0.00000 -25.00367 -0.00000 0.00000 2.30500 0.00000 0.00001 -29.90891 2.50324 -4.32895 8.39099 -0.81700 -3.75800 -20.00339 -0.00000 0.00000 3.04400 0.00001 -0.00001 -25.00367 -0.00000 0.00000 1.97499 -0.00001 0.00001 -29.90891 2.50324 -4.32895 -1.01630 -1.63388 0.03818 56.56054 -0.11297 -0.60287 -17.33952 -0.33736 0.41926 47.70594 -40.79482 32.97755 -23.76419 0.74991 0.34937 19.26387 0.17267 35.02989 -22.59580 0.04780 0.29378 -2.77664 -17.46388 19.71544 -4.87701 -1.04399 3.60800 24.66570 4.20854 9.07947 -2.66501 -0.00001 0.00001 0.00000 0.00000 -10.00000 -2.54301 -0.00002 0.00001 -0.00000 -0.00000 -15.00000 -9.23200 -0.30100 2.14400 20.00000 0.00000 0.00000 -4.22500 0.00001 -0.00001 25.00000 0.00000 0.00000 -2.65398 0.00001 0.00001 29.90550 2.49761 4.33288 -8.92001 0.00000 0.00000 20.00000 0.00000 0.00000 -4.86301 0.00000 0.00000 25.00000 0.00000 0.00000 -2.76499 -0.00001 0.00000 29.90549 2.49770 4.33288 -8.68901 -0.12600 -2.08700 20.00000 0.00000 0.00000 -4.53801 0.00000 0.00000 25.00000 0.00000 0.00000 -2.30501 -0.00002 0.00002 29.90549 2.49770 4.33288 -8.39100 -0.81704 -3.75800 20.00000 0.00000 0.00000 -3.04401 0.00001 -0.00001 25.00000 0.00000 0.00000 -1.97499 -0.00001 0.00000 29.90550 2.49761 4.33288 0.01680 0.80449 0.01186 0.00003 0.00732 0.00623 0.28091 7.23861 0.17867 31.88490 -18.93854 11.32624 
-42.54440 43.65562 -226.15608 -20.77374 52.72252 1.95929 8.80277 4.86199 1.01627 149.87703 -47.59417 91.60495 -0.02086 -39.48791 -0.42003 -107.71397 28.95130 61.19814 -0.44124 -37.48697 -0.34926 2.02597 1.49618 -30.35365 -8.19445 1.10303 1.06098 -98.06516 -54.16905 -104.01117 0.20519 -31.93955 0.63248 129.44221 74.47679 -137.44341 -0.00301 -38.54638 -0.12957 6.23177 11.08093 -21.28767 0.57204 30.66640 0.21978 -0.28105 1.13282 3.57650 0.70861 23.53476 0.41317 -0.24507 1.54504 4.88993 1.47441 -0.13615 0.24588 -6.12628 0.03122 -1.85936 11.56675 -0.06021 0.03492 -14.46503 0.15781 -55.33908 20.89645 -0.00619 0.13530 4.43559 6.31483 -14.95417 21.29984 0.16877 -0.04125 -0.42439 9.21849 5.77377 4.87701 -1.04400 3.60799 -24.67057 4.20365 -9.07431 2.66500 -0.00001 -0.00001 0.00000 0.00000 9.99472 2.54301 -0.00001 0.00000 0.00001 0.00000 15.00414 9.23200 -0.30100 2.14399 -20.00339 -0.00000 0.00000 4.22502 -0.00001 0.00001 -25.00367 -0.00000 0.00000 2.65400 -0.00001 -0.00001 -29.90891 2.50324 -4.32895 8.92000 0.00000 0.00000 -20.00339 -0.00000 0.00000 4.86299 0.00000 -0.00001 -25.00367 -0.00000 0.00000 2.76499 0.00000 -0.00001 -29.90891 2.50324 -4.32895 8.68900 -0.12600 -2.08700 -20.00339 -0.00000 0.00000 4.53801 0.00000 0.00000 -25.00367 -0.00000 0.00000 2.30500 0.00000 0.00001 -29.90891 2.50324 -4.32895 8.39099 -0.81700 -3.75800 -20.00339 -0.00000 0.00000 3.04400 0.00001 -0.00001 -25.00367 -0.00000 0.00000 1.97499 -0.00001 0.00001 -29.90891 2.50324 -4.32895 -0.92720 -1.65997 0.14412 57.93184 2.69752 1.08969 -17.43604 -0.21016 0.29455 41.07632 -43.00068 34.74025 -23.99448 0.60083 0.40953 19.38089 -3.77618 34.79507 -23.14087 0.13662 0.34438 -34.66723 -33.11792 20.95992 -4.87701 -1.04399 3.60800 24.66570 4.20854 9.07947 -2.66501 -0.00001 0.00001 0.00000 0.00000 -10.00000 -2.54301 -0.00002 0.00001 -0.00000 -0.00000 -15.00000 -9.23200 -0.30100 2.14400 20.00000 0.00000 0.00000 -4.22500 0.00001 -0.00001 25.00000 0.00000 0.00000 -2.65398 0.00001 0.00001 29.90550 2.49761 4.33288 -8.92001 0.00000 0.00000 20.00000 0.00000 0.00000 -4.86301 0.00000 0.00000 25.00000 0.00000 0.00000 -2.76499 -0.00001 0.00000 29.90549 2.49770 4.33288 -8.68901 -0.12600 -2.08700 20.00000 0.00000 0.00000 -4.53801 0.00000 0.00000 25.00000 0.00000 0.00000 -2.30501 -0.00002 0.00002 29.90549 2.49770 4.33288 -8.39100 -0.81704 -3.75800 20.00000 0.00000 0.00000 -3.04401 0.00001 -0.00001 25.00000 0.00000 0.00000 -1.97499 -0.00001 0.00000 29.90550 2.49761 4.33288 0.01763 0.80977 0.01459 0.00003 0.00732 0.00623 0.34178 7.28851 0.27422 31.93412 -20.76266 11.16989 
-39.45729 40.36897 -225.66890 -21.75502 54.73038 5.77574 8.62982 5.14892 0.94327 151.60190 -49.46774 93.20446 -0.60146 -40.12164 -0.50383 -105.59188 27.38003 57.02552 -0.49251 -37.64835 -0.28522 -0.28121 6.59376 -10.28993 -8.40238 0.94854 0.88375 -103.68166 -48.40250 -104.37096 0.22944 -32.08331 0.61346 129.09103 68.11015 -132.98061 -0.00987 -38.89940 -0.09517 13.54647 2.25141 11.58396 0.67669 30.75966 0.22703 -0.21995 0.96290 3.68556 0.64423 23.64084 0.38226 -0.13528 1.25719 4.83362 1.52980 -0.09241 0.34619 -4.00714 0.32928 -4.38418 11.98941 -0.01793 0.02403 -14.00116 0.98418 -56.04686 20.56356 0.01691 0.08448 5.60491 4.96833 -12.31767 20.81239 0.13833 0.02352 -18.04266 27.67281 13.54103 4.87701 -1.04400 3.60799 -24.67057 4.20365 -9.07431 2.66500 -0.00001 -0.00001 0.00000 0.00000 9.99472 2.54301 -0.00001 0.00000 0.00001 0.00000 15.00414 9.23200 -0.30100 2.14399 -20.00339 -0.00000 0.00000 4.22502 -0.00001 0.00001 -25.00367 -0.00000 0.00000 2.65400 -0.00001 -0.00001 -29.90891 2.50324 -4.32895 8.92000 0.00000 0.00000 -20.00339 -0.00000 0.00000 4.86299 0.00000 -0.00001 -25.00367 -0.00000 0.00000 2.76499 0.00000 -0.00001 -29.90891 2.50324 -4.32895 8.68900 -0.12600 -2.08700 -20.00339 -0.00000 0.00000 4.53801 0.00000 0.00000 -25.00367 -0.00000 0.00000 2.30500 0.00000 0.00001 -29.90891 2.50324 -4.32895 8.39099 -0.81700 -3.75800 -20.00339 -0.00000 0.00000 3.04400 0.00001 -0.00001 -25.00367 -0.00000 0.00000 1.97499 -0.00001 0.00001 -29.90891 2.50324 -4.32895 -0.92946 -1.79459 0.20459 59.22068 5.97579 2.61762 -18.53110 -0.36957 0.28754 26.65350 -50.64400 26.07343 -23.31459 0.57261 0.51201 22.79091 -0.08974 42.65577 -22.47563 -0.32157 0.07257 -30.57236 -30.23189 0.19209 -4.87701 -1.04399 3.60800 24.66570 4.20854 9.07947 -2.66501 -0.00001 0.00001 0.00000 0.00000 -10.00000 -2.54301 -0.00002 0.00001 -0.00000 -0.00000 -15.00000 -9.23200 -0.30100 2.14400 20.00000 0.00000 0.00000 -4.22500 0.00001 -0.00001 25.00000 0.00000 0.00000 -2.65398 0.00001 0.00001 29.90550 2.49761 4.33288 -8.92001 0.00000 0.00000 20.00000 0.00000 0.00000 -4.86301 0.00000 0.00000 25.00000 0.00000 0.00000 -2.76499 -0.00001 0.00000 29.90549 2.49770 4.33288 -8.68901 -0.12600 -2.08700 20.00000 0.00000 0.00000 -4.53801 0.00000 0.00000 25.00000 0.00000 0.00000 -2.30501 -0.00002 0.00002 29.90549 2.49770 4.33288 -8.39100 -0.81704 -3.75800 20.00000 0.00000 0.00000 -3.04401 0.00001 -0.00001 25.00000 0.00000 0.00000 -1.97499 -0.00001 0.00000 29.90550 2.49761 4.33288 0.01867 0.81373 0.01724 0.00003 0.00732 0.00623 0.33429 7.32543 0.32007 27.16578 -24.48652 8.26163 
